<svg width="139" height="43" viewBox="0 0 139 43" fill="none" xmlns="http://www.w3.org/2000/svg">
<path d="M4.72002 35.8157C3.92518 35.8157 3.21745 35.6796 2.59683 35.4073C1.9762 35.1351 1.48623 34.7649 1.12693 34.2968C0.767616 33.8177 0.566185 33.2842 0.522632 32.6962H3.28278C3.31545 33.012 3.46244 33.2678 3.72375 33.4638C3.98507 33.6598 4.30627 33.7578 4.68736 33.7578C5.03578 33.7578 5.30254 33.6925 5.48764 33.5618C5.68362 33.4203 5.78162 33.2406 5.78162 33.0228C5.78162 32.7615 5.64551 32.571 5.37331 32.4512C5.10111 32.3206 4.66014 32.179 4.0504 32.0266C3.39711 31.8741 2.8527 31.7163 2.41717 31.5529C1.98165 31.3787 1.606 31.112 1.29025 30.7527C0.974491 30.3825 0.816612 29.887 0.816612 29.2664C0.816612 28.7438 0.958159 28.2702 1.24125 27.8455C1.53523 27.41 1.95987 27.067 2.51517 26.8166C3.08135 26.5662 3.75097 26.4409 4.52403 26.4409C5.66729 26.4409 6.56556 26.724 7.21885 27.2902C7.88303 27.8564 8.26412 28.6077 8.36211 29.5441H5.78162C5.73806 29.2283 5.59652 28.9779 5.35698 28.7928C5.12833 28.6077 4.82346 28.5151 4.44237 28.5151C4.11573 28.5151 3.8653 28.5805 3.69109 28.7111C3.51688 28.8309 3.42977 28.9997 3.42977 29.2174C3.42977 29.4787 3.56587 29.6747 3.83808 29.8054C4.12117 29.936 4.5567 30.0667 5.14466 30.1974C5.81972 30.3716 6.36958 30.5458 6.79422 30.72C7.21885 30.8833 7.58905 31.1555 7.90481 31.5366C8.23145 31.9068 8.40022 32.4077 8.41111 33.0392C8.41111 33.5727 8.25867 34.0518 7.95381 34.4764C7.65982 34.8902 7.22974 35.2168 6.66356 35.4563C6.10826 35.6959 5.46042 35.8157 4.72002 35.8157ZM18.7105 30.9813C18.7105 31.2426 18.6942 31.5148 18.6615 31.7979H12.3409C12.3845 32.3641 12.5641 32.7996 12.8799 33.1045C13.2065 33.3985 13.604 33.5455 14.0721 33.5455C14.769 33.5455 15.2535 33.2515 15.5257 32.6635H18.4982C18.3458 33.2624 18.0681 33.8013 17.6652 34.2804C17.2733 34.7595 16.7779 35.1351 16.179 35.4073C15.5802 35.6796 14.9105 35.8157 14.1701 35.8157C13.2773 35.8157 12.4825 35.6251 11.7856 35.244C11.0888 34.8629 10.5444 34.3185 10.1524 33.6108C9.76043 32.9031 9.56445 32.0756 9.56445 31.1283C9.56445 30.181 9.75499 29.3535 10.1361 28.6458C10.528 27.9381 11.0725 27.3937 11.7693 27.0126C12.4661 26.6315 13.2664 26.4409 14.1701 26.4409C15.0521 26.4409 15.836 26.626 16.522 26.9962C17.2079 27.3664 17.7415 27.8945 18.1225 28.5805C18.5145 29.2664 18.7105 30.0667 18.7105 30.9813ZM15.8524 30.2464C15.8524 29.7673 15.689 29.3862 15.3624 29.1031C15.0357 28.82 14.6274 28.6785 14.1375 28.6785C13.6693 28.6785 13.2719 28.8146 12.9452 29.0868C12.6295 29.359 12.4335 29.7455 12.3573 30.2464H15.8524ZM33.266 26.5716L30.7998 35.685H27.713L26.2758 29.7727L24.7895 35.685H21.7191L19.2366 26.5716H22.0294L23.3196 33.0882L24.8549 26.5716H27.811L29.3626 33.0555L30.6365 26.5716H33.266ZM33.7757 31.112C33.7757 30.1756 33.9499 29.3535 34.2984 28.6458C34.6577 27.9381 35.1422 27.3937 35.7519 27.0126C36.3617 26.6315 37.0422 26.4409 37.7935 26.4409C38.4359 26.4409 38.9966 26.5716 39.4757 26.8329C39.9656 27.0942 40.3413 27.4372 40.6026 27.8618V26.5716H43.3954V35.685H40.6026V34.3947C40.3304 34.8194 39.9493 35.1624 39.4594 35.4237C38.9803 35.685 38.4195 35.8157 37.7771 35.8157C37.0367 35.8157 36.3617 35.6251 35.7519 35.244C35.1422 34.8521 34.6577 34.3022 34.2984 33.5945C33.9499 32.8759 33.7757 32.0484 33.7757 31.112ZM40.6026 31.1283C40.6026 30.4315 40.4066 29.8816 40.0146 29.4787C39.6336 29.0759 39.1654 28.8744 38.6101 28.8744C38.0548 28.8744 37.5811 29.0759 37.1892 29.4787C36.8081 29.8707 36.6175 30.4151 36.6175 31.112C36.6175 31.8088 36.8081 32.3641 37.1892 32.7779C37.5811 33.1807 38.0548 33.3822 38.6101 33.3822C39.1654 33.3822 39.6336 33.1807 40.0146 32.7779C40.4066 32.375 40.6026 31.8251 40.6026 31.1283ZM54.4789 26.4736C55.5242 26.4736 56.3625 26.822 56.9941 27.5189C57.6256 28.2048 57.9413 29.1521 57.9413 30.3607V35.685H55.1648V30.7363C55.1648 30.1266 55.007 29.653 54.6912 29.3154C54.3755 28.9779 53.9508 28.8091 53.4173 28.8091C52.8838 28.8091 52.4591 28.9779 52.1434 29.3154C51.8276 29.653 51.6697 30.1266 51.6697 30.7363V35.685H48.8769V23.5991H51.6697V27.7965C51.9528 27.3937 52.3394 27.0725 52.8293 26.8329C53.3193 26.5934 53.8692 26.4736 54.4789 26.4736ZM59.3268 31.112C59.3268 30.1756 59.501 29.3535 59.8494 28.6458C60.2087 27.9381 60.6932 27.3937 61.303 27.0126C61.9127 26.6315 62.5932 26.4409 63.3445 26.4409C63.9869 26.4409 64.5476 26.5716 65.0267 26.8329C65.5167 27.0942 65.8923 27.4372 66.1536 27.8618V26.5716H68.9465V35.685H66.1536V34.3947C65.8814 34.8194 65.5004 35.1624 65.0104 35.4237C64.5313 35.685 63.9706 35.8157 63.3282 35.8157C62.5878 35.8157 61.9127 35.6251 61.303 35.244C60.6932 34.8521 60.2087 34.3022 59.8494 33.5945C59.501 32.8759 59.3268 32.0484 59.3268 31.112ZM66.1536 31.1283C66.1536 30.4315 65.9577 29.8816 65.5657 29.4787C65.1846 29.0759 64.7164 28.8744 64.1611 28.8744C63.6058 28.8744 63.1322 29.0759 62.7402 29.4787C62.3591 29.8707 62.1686 30.4151 62.1686 31.112C62.1686 31.8088 62.3591 32.3641 62.7402 32.7779C63.1322 33.1807 63.6058 33.3822 64.1611 33.3822C64.7164 33.3822 65.1846 33.1807 65.5657 32.7779C65.9577 32.375 66.1536 31.8251 66.1536 31.1283ZM72.3715 25.6243C71.8815 25.6243 71.4787 25.4828 71.1629 25.1997C70.8581 24.9057 70.7056 24.5464 70.7056 24.1218C70.7056 23.6862 70.8581 23.3269 71.1629 23.0438C71.4787 22.7499 71.8815 22.6029 72.3715 22.6029C72.8506 22.6029 73.2426 22.7499 73.5474 23.0438C73.8632 23.3269 74.0211 23.6862 74.0211 24.1218C74.0211 24.5464 73.8632 24.9057 73.5474 25.1997C73.2426 25.4828 72.8506 25.6243 72.3715 25.6243ZM73.7598 26.5716V35.685H70.9669V26.5716H73.7598ZM75.2284 31.1283C75.2284 30.181 75.4189 29.3535 75.8 28.6458C76.192 27.9381 76.7309 27.3937 77.4169 27.0126C78.1137 26.6315 78.9086 26.4409 79.8014 26.4409C80.9447 26.4409 81.8974 26.7404 82.6595 27.3392C83.4326 27.9381 83.9389 28.7819 84.1784 29.8707H81.206C80.9556 29.1739 80.471 28.8255 79.7524 28.8255C79.2407 28.8255 78.8324 29.0269 78.5275 29.4297C78.2226 29.8217 78.0702 30.3879 78.0702 31.1283C78.0702 31.8687 78.2226 32.4403 78.5275 32.8432C78.8324 33.2352 79.2407 33.4311 79.7524 33.4311C80.471 33.4311 80.9556 33.0827 81.206 32.3859H84.1784C83.9389 33.4529 83.4326 34.2913 82.6595 34.901C81.8865 35.5108 80.9338 35.8157 79.8014 35.8157C78.9086 35.8157 78.1137 35.6251 77.4169 35.244C76.7309 34.8629 76.192 34.3185 75.8 33.6108C75.4189 32.9031 75.2284 32.0756 75.2284 31.1283ZM94.2631 30.9813C94.2631 31.2426 94.2468 31.5148 94.2141 31.7979H87.8935C87.9371 32.3641 88.1167 32.7996 88.4325 33.1045C88.7591 33.3985 89.1566 33.5455 89.6247 33.5455C90.3216 33.5455 90.8061 33.2515 91.0783 32.6635H94.0508C93.8984 33.2624 93.6207 33.8013 93.2178 34.2804C92.8259 34.7595 92.3305 35.1351 91.7316 35.4073C91.1328 35.6796 90.4631 35.8157 89.7227 35.8157C88.8299 35.8157 88.0351 35.6251 87.3382 35.244C86.6414 34.8629 86.097 34.3185 85.705 33.6108C85.313 32.9031 85.117 32.0756 85.117 31.1283C85.117 30.181 85.3076 29.3535 85.6887 28.6458C86.0806 27.9381 86.6251 27.3937 87.3219 27.0126C88.0187 26.6315 88.819 26.4409 89.7227 26.4409C90.6047 26.4409 91.3886 26.626 92.0746 26.9962C92.7605 27.3664 93.2941 27.8945 93.6751 28.5805C94.0671 29.2664 94.2631 30.0667 94.2631 30.9813ZM91.405 30.2464C91.405 29.7673 91.2416 29.3862 90.915 29.1031C90.5884 28.82 90.18 28.6785 89.6901 28.6785C89.2219 28.6785 88.8245 28.8146 88.4978 29.0868C88.1821 29.359 87.9861 29.7455 87.9099 30.2464H91.405ZM101.99 27.8618C102.252 27.4372 102.627 27.0942 103.117 26.8329C103.607 26.5716 104.168 26.4409 104.799 26.4409C105.551 26.4409 106.231 26.6315 106.841 27.0126C107.451 27.3937 107.93 27.9381 108.278 28.6458C108.638 29.3535 108.817 30.1756 108.817 31.112C108.817 32.0484 108.638 32.8759 108.278 33.5945C107.93 34.3022 107.451 34.8521 106.841 35.244C106.231 35.6251 105.551 35.8157 104.799 35.8157C104.157 35.8157 103.596 35.6904 103.117 35.44C102.638 35.1787 102.263 34.8357 101.99 34.4111V35.685H99.1975V23.5991H101.99V27.8618ZM105.975 31.112C105.975 30.4151 105.779 29.8707 105.387 29.4787C105.006 29.0759 104.533 28.8744 103.966 28.8744C103.411 28.8744 102.938 29.0759 102.546 29.4787C102.165 29.8816 101.974 30.4315 101.974 31.1283C101.974 31.8251 102.165 32.375 102.546 32.7779C102.938 33.1807 103.411 33.3822 103.966 33.3822C104.522 33.3822 104.995 33.1807 105.387 32.7779C105.779 32.3641 105.975 31.8088 105.975 31.112ZM109.727 31.112C109.727 30.1756 109.901 29.3535 110.25 28.6458C110.609 27.9381 111.094 27.3937 111.703 27.0126C112.313 26.6315 112.994 26.4409 113.745 26.4409C114.387 26.4409 114.948 26.5716 115.427 26.8329C115.917 27.0942 116.293 27.4372 116.554 27.8618V26.5716H119.347V35.685H116.554V34.3947C116.282 34.8194 115.901 35.1624 115.411 35.4237C114.932 35.685 114.371 35.8157 113.728 35.8157C112.988 35.8157 112.313 35.6251 111.703 35.244C111.094 34.8521 110.609 34.3022 110.25 33.5945C109.901 32.8759 109.727 32.0484 109.727 31.112ZM116.554 31.1283C116.554 30.4315 116.358 29.8816 115.966 29.4787C115.585 29.0759 115.117 28.8744 114.561 28.8744C114.006 28.8744 113.532 29.0759 113.141 29.4787C112.759 29.8707 112.569 30.4151 112.569 31.112C112.569 31.8088 112.759 32.3641 113.141 32.7779C113.532 33.1807 114.006 33.3822 114.561 33.3822C115.117 33.3822 115.585 33.1807 115.966 32.7779C116.358 32.375 116.554 31.8251 116.554 31.1283ZM124.16 23.5991V35.685H121.367V23.5991H124.16ZM127.589 25.6243C127.099 25.6243 126.696 25.4828 126.38 25.1997C126.075 24.9057 125.923 24.5464 125.923 24.1218C125.923 23.6862 126.075 23.3269 126.38 23.0438C126.696 22.7499 127.099 22.6029 127.589 22.6029C128.068 22.6029 128.46 22.7499 128.764 23.0438C129.08 23.3269 129.238 23.6862 129.238 24.1218C129.238 24.5464 129.08 24.9057 128.764 25.1997C128.46 25.4828 128.068 25.6243 127.589 25.6243ZM128.977 26.5716V35.685H126.184V26.5716H128.977Z" fill="#FBFBFB"/>
<path d="M0 23.7731C0.122787 23.4193 0.122787 23.0479 0.192951 22.6941C0.649017 20.3592 1.77164 18.3958 3.43804 16.7331C4.89394 15.3004 6.57788 14.2391 8.41968 13.4077C10.6299 12.3995 12.9453 11.745 15.3133 11.2851C17.6463 10.8252 19.9967 10.5599 22.3472 10.4184C22.9261 10.383 23.5225 10.3123 24.1013 10.2415C24.6977 10.1708 25.2766 9.9762 25.8379 9.76394C26.9079 9.35711 27.8902 8.80877 28.8725 8.22506C34.1874 5.00579 39.8707 2.79475 45.9224 1.45044C48.2904 0.919791 50.676 0.548337 53.0966 0.318389C54.1316 0.21226 55.1665 0.176883 56.2014 0.0707532C56.447 0.0707532 56.7101 0.0707532 56.9557 0.0884415C57.2012 0.0530649 57.4819 0.176883 57.7099 0C58.7975 0 59.9025 0 60.9901 0C61.2357 0.159195 61.4988 0.0530649 61.7619 0.0884415C62.0075 0.0884415 62.253 0.0707532 62.5162 0.0707532C63.288 0.123818 64.0598 0.194571 64.814 0.247636C66.8663 0.406831 68.9011 0.672155 70.9358 0.990545C74.7773 1.62732 78.5662 2.54711 82.2849 3.71454C87.1788 5.25342 91.8973 7.19914 96.5106 9.44555C96.5983 9.48093 96.686 9.55168 96.7562 9.58706C96.7562 9.62243 96.7562 9.65781 96.7387 9.69319C95.5985 9.35711 94.4583 9.02103 93.3182 8.68495C88.6523 7.32296 83.9162 6.17322 79.145 5.25342C76.4437 4.74046 73.7424 4.29826 71.006 3.97987C68.3047 3.66148 65.6034 3.43153 62.8845 3.34309C60.8498 3.27234 58.815 3.27234 56.7803 3.37846C52.9739 3.57304 49.2201 4.10369 45.5715 5.23574C42.6597 6.13784 39.9058 7.39371 37.4325 9.2156C36.801 9.6755 36.1871 10.1885 35.6609 10.7722C35.3276 11.1436 35.0469 11.5505 34.8715 12.0104C34.6084 12.6825 34.7312 13.2839 35.1697 13.8322C35.4679 14.186 35.8363 14.4337 36.2222 14.6636C37.1694 15.1942 38.2043 15.4949 39.2568 15.7426C40.9056 16.1317 42.5896 16.3617 44.2735 16.5209C45.3435 16.627 46.431 16.6978 47.501 16.7862C47.501 16.8216 47.501 16.8746 47.501 16.91C46.6766 17.1223 45.8522 17.193 45.0102 17.2461C40.9232 17.5291 36.9063 17.0161 32.942 16.0256C31.644 15.7072 30.3986 15.265 29.1005 14.9289C28.0305 14.6636 26.9605 14.5221 25.873 14.4337C24.3294 14.3098 22.7858 14.3275 21.2597 14.4513C17.0148 14.7874 12.8576 15.5303 8.92837 17.1753C6.22706 18.2897 3.77132 19.8463 1.61377 21.845C1.05246 22.358 0.578853 22.9417 0.192951 23.6139C0.157869 23.6669 0.140328 23.72 0.105246 23.7554C0.035082 23.8969 0.017541 23.8261 0 23.7731Z" fill="#FBFBFB"/>
<path d="M133.335 30.1453C133.283 30.0245 133.388 29.9727 133.441 29.9037C134.796 28.1261 135.446 26.1069 135.464 23.8806C135.464 23.173 135.2 22.638 134.672 22.172C134.162 21.7406 133.599 21.4126 133.019 21.1193C131.488 20.3426 129.87 19.7904 128.234 19.2899C126.281 18.6858 124.311 18.1163 122.305 17.7021C120.81 17.3915 119.297 17.1844 117.767 16.9773C116.043 16.7529 114.301 16.5803 112.577 16.425C111.416 16.3215 110.255 16.2352 109.094 16.1661C106.543 16.0108 103.992 15.89 101.424 15.8382C98.6617 15.7865 95.9173 15.7692 93.1554 15.8382C91.2907 15.8728 89.4259 15.959 87.5612 16.0799C84.852 16.2524 82.1604 16.5113 79.4689 16.9082C77.9384 17.1326 76.4255 17.4605 74.9126 17.7539C72.7487 18.1681 70.5673 18.5305 68.4035 18.8757C66.4508 19.1863 64.4981 19.4797 62.5278 19.7559C60.8038 19.9975 59.0798 20.1873 57.3382 20.3772C55.0336 20.6188 52.7291 20.8086 50.407 20.9122C47.9969 21.0157 45.5692 21.0157 43.1591 20.8949C39.9398 20.7223 36.7732 20.1873 33.6066 19.5833C33.1668 19.497 32.727 19.3762 32.2873 19.3589C32.2873 19.3417 32.2697 19.3071 32.2521 19.2899C33.3076 19.3589 34.3631 19.4279 35.401 19.4797C37.2482 19.5833 39.0777 19.5833 40.9249 19.566C42.3323 19.5488 43.7396 19.5315 45.147 19.4452C46.9413 19.3589 48.7357 19.2381 50.5301 19.0655C52.5356 18.8757 54.5235 18.6168 56.5114 18.3062C58.3761 18.0128 60.2057 17.5986 62.0352 17.1844C65.8527 16.3387 69.7053 15.5794 73.558 14.889C76.0384 14.4576 78.5189 14.0434 80.9994 13.681C83.0224 13.3876 85.0631 13.1287 87.1038 12.9043C89.3028 12.6627 91.5194 12.4384 93.7359 12.283C95.284 12.1622 96.8145 12.0932 98.3626 12.0242C100.931 11.9206 103.499 11.8861 106.085 11.9551C108.636 12.0242 111.17 12.1622 113.703 12.4038C119.702 12.9906 125.595 14.1642 131.33 15.9763C132.79 16.4423 134.215 17.0118 135.517 17.7884C136.396 18.3234 137.206 18.9275 137.839 19.7559C138.314 20.3772 138.683 21.0675 138.771 21.8441C138.736 22.0167 138.824 22.172 138.824 22.3446C138.824 22.5689 138.824 22.7933 138.824 23.0004C138.807 23.0349 138.771 23.0694 138.754 23.1039C138.701 24.0704 138.296 24.9161 137.804 25.7099C136.713 27.4703 135.235 28.8682 133.529 30.0418C133.476 30.1108 133.423 30.1626 133.335 30.1453Z" fill="#FBFBFB"/>
</svg>
