<svg width="140" height="44" viewBox="0 0 140 44" fill="none" xmlns="http://www.w3.org/2000/svg">
<path d="M4.72002 35.9654C3.92518 35.9654 3.21745 35.8293 2.59683 35.5571C1.9762 35.2849 1.48623 34.9147 1.12693 34.4465C0.767616 33.9675 0.566185 33.4339 0.522632 32.846H3.28278C3.31545 33.1617 3.46244 33.4176 3.72375 33.6136C3.98507 33.8096 4.30627 33.9076 4.68736 33.9076C5.03578 33.9076 5.30254 33.8422 5.48764 33.7116C5.68362 33.57 5.78162 33.3904 5.78162 33.1726C5.78162 32.9113 5.64551 32.7208 5.37331 32.601C5.10111 32.4703 4.66014 32.3288 4.0504 32.1764C3.39711 32.0239 2.8527 31.866 2.41717 31.7027C1.98165 31.5285 1.606 31.2617 1.29025 30.9024C0.974491 30.5322 0.816612 30.0368 0.816612 29.4162C0.816612 28.8936 0.958159 28.4199 1.24125 27.9953C1.53523 27.5598 1.95987 27.2168 2.51517 26.9664C3.08135 26.7159 3.75097 26.5907 4.52403 26.5907C5.66729 26.5907 6.56556 26.8738 7.21885 27.44C7.88303 28.0062 8.26412 28.7575 8.36211 29.6939H5.78162C5.73806 29.3781 5.59652 29.1277 5.35698 28.9426C5.12833 28.7575 4.82346 28.6649 4.44237 28.6649C4.11573 28.6649 3.8653 28.7302 3.69109 28.8609C3.51688 28.9807 3.42977 29.1494 3.42977 29.3672C3.42977 29.6285 3.56587 29.8245 3.83808 29.9552C4.12117 30.0858 4.5567 30.2165 5.14466 30.3471C5.81972 30.5214 6.36958 30.6956 6.79422 30.8698C7.21885 31.0331 7.58905 31.3053 7.90481 31.6864C8.23145 32.0566 8.40022 32.5574 8.41111 33.189C8.41111 33.7225 8.25867 34.2016 7.95381 34.6262C7.65982 35.0399 7.22974 35.3666 6.66356 35.6061C6.10826 35.8457 5.46042 35.9654 4.72002 35.9654ZM18.7105 31.1311C18.7105 31.3924 18.6942 31.6646 18.6615 31.9477H12.3409C12.3845 32.5139 12.5641 32.9494 12.8799 33.2543C13.2065 33.5483 13.604 33.6953 14.0721 33.6953C14.769 33.6953 15.2535 33.4013 15.5257 32.8133H18.4982C18.3458 33.4122 18.0681 33.9511 17.6652 34.4302C17.2733 34.9093 16.7779 35.2849 16.179 35.5571C15.5802 35.8293 14.9105 35.9654 14.1701 35.9654C13.2773 35.9654 12.4825 35.7749 11.7856 35.3938C11.0888 35.0127 10.5444 34.4683 10.1524 33.7606C9.76043 33.0529 9.56445 32.2254 9.56445 31.2781C9.56445 30.3308 9.75499 29.5033 10.1361 28.7956C10.528 28.0878 11.0725 27.5434 11.7693 27.1624C12.4661 26.7813 13.2664 26.5907 14.1701 26.5907C15.0521 26.5907 15.836 26.7758 16.522 27.146C17.2079 27.5162 17.7415 28.0443 18.1225 28.7302C18.5145 29.4162 18.7105 30.2165 18.7105 31.1311ZM15.8524 30.3961C15.8524 29.9171 15.689 29.536 15.3624 29.2529C15.0357 28.9698 14.6274 28.8282 14.1375 28.8282C13.6693 28.8282 13.2719 28.9643 12.9452 29.2365C12.6295 29.5088 12.4335 29.8953 12.3573 30.3961H15.8524ZM33.266 26.7214L30.7998 35.8348H27.713L26.2758 29.9225L24.7895 35.8348H21.7191L19.2366 26.7214H22.0294L23.3196 33.238L24.8549 26.7214H27.811L29.3626 33.2053L30.6365 26.7214H33.266ZM33.7757 31.2617C33.7757 30.3254 33.9499 29.5033 34.2984 28.7956C34.6577 28.0878 35.1422 27.5434 35.7519 27.1624C36.3617 26.7813 37.0422 26.5907 37.7935 26.5907C38.4359 26.5907 38.9966 26.7214 39.4757 26.9827C39.9656 27.244 40.3413 27.587 40.6026 28.0116V26.7214H43.3954V35.8348H40.6026V34.5445C40.3304 34.9692 39.9493 35.3121 39.4594 35.5735C38.9803 35.8348 38.4195 35.9654 37.7771 35.9654C37.0367 35.9654 36.3617 35.7749 35.7519 35.3938C35.1422 35.0018 34.6577 34.452 34.2984 33.7442C33.9499 33.0256 33.7757 32.1981 33.7757 31.2617ZM40.6026 31.2781C40.6026 30.5812 40.4066 30.0314 40.0146 29.6285C39.6336 29.2257 39.1654 29.0242 38.6101 29.0242C38.0548 29.0242 37.5811 29.2257 37.1892 29.6285C36.8081 30.0205 36.6175 30.5649 36.6175 31.2617C36.6175 31.9586 36.8081 32.5139 37.1892 32.9276C37.5811 33.3305 38.0548 33.5319 38.6101 33.5319C39.1654 33.5319 39.6336 33.3305 40.0146 32.9276C40.4066 32.5248 40.6026 31.9749 40.6026 31.2781ZM54.4789 26.6234C55.5242 26.6234 56.3625 26.9718 56.9941 27.6687C57.6256 28.3546 57.9413 29.3019 57.9413 30.5105V35.8348H55.1648V30.8861C55.1648 30.2764 55.007 29.8027 54.6912 29.4652C54.3755 29.1277 53.9508 28.9589 53.4173 28.9589C52.8838 28.9589 52.4591 29.1277 52.1434 29.4652C51.8276 29.8027 51.6697 30.2764 51.6697 30.8861V35.8348H48.8769V23.7489H51.6697V27.9463C51.9528 27.5434 52.3394 27.2222 52.8293 26.9827C53.3193 26.7432 53.8692 26.6234 54.4789 26.6234ZM59.3268 31.2617C59.3268 30.3254 59.501 29.5033 59.8494 28.7956C60.2087 28.0878 60.6932 27.5434 61.303 27.1624C61.9127 26.7813 62.5932 26.5907 63.3445 26.5907C63.9869 26.5907 64.5476 26.7214 65.0267 26.9827C65.5167 27.244 65.8923 27.587 66.1536 28.0116V26.7214H68.9465V35.8348H66.1536V34.5445C65.8814 34.9692 65.5004 35.3121 65.0104 35.5735C64.5313 35.8348 63.9706 35.9654 63.3282 35.9654C62.5878 35.9654 61.9127 35.7749 61.303 35.3938C60.6932 35.0018 60.2087 34.452 59.8494 33.7442C59.501 33.0256 59.3268 32.1981 59.3268 31.2617ZM66.1536 31.2781C66.1536 30.5812 65.9577 30.0314 65.5657 29.6285C65.1846 29.2257 64.7164 29.0242 64.1611 29.0242C63.6058 29.0242 63.1322 29.2257 62.7402 29.6285C62.3591 30.0205 62.1686 30.5649 62.1686 31.2617C62.1686 31.9586 62.3591 32.5139 62.7402 32.9276C63.1322 33.3305 63.6058 33.5319 64.1611 33.5319C64.7164 33.5319 65.1846 33.3305 65.5657 32.9276C65.9577 32.5248 66.1536 31.9749 66.1536 31.2781ZM72.3715 25.7741C71.8815 25.7741 71.4787 25.6326 71.1629 25.3495C70.8581 25.0555 70.7056 24.6962 70.7056 24.2715C70.7056 23.836 70.8581 23.4767 71.1629 23.1936C71.4787 22.8996 71.8815 22.7526 72.3715 22.7526C72.8506 22.7526 73.2426 22.8996 73.5474 23.1936C73.8632 23.4767 74.0211 23.836 74.0211 24.2715C74.0211 24.6962 73.8632 25.0555 73.5474 25.3495C73.2426 25.6326 72.8506 25.7741 72.3715 25.7741ZM73.7598 26.7214V35.8348H70.9669V26.7214H73.7598ZM75.2284 31.2781C75.2284 30.3308 75.4189 29.5033 75.8 28.7956C76.192 28.0878 76.7309 27.5434 77.4169 27.1624C78.1137 26.7813 78.9086 26.5907 79.8014 26.5907C80.9447 26.5907 81.8974 26.8901 82.6595 27.489C83.4326 28.0878 83.9389 28.9317 84.1784 30.0205H81.206C80.9556 29.3237 80.471 28.9752 79.7524 28.9752C79.2407 28.9752 78.8324 29.1767 78.5275 29.5795C78.2226 29.9715 78.0702 30.5377 78.0702 31.2781C78.0702 32.0185 78.2226 32.5901 78.5275 32.993C78.8324 33.3849 79.2407 33.5809 79.7524 33.5809C80.471 33.5809 80.9556 33.2325 81.206 32.5357H84.1784C83.9389 33.6027 83.4326 34.4411 82.6595 35.0508C81.8865 35.6606 80.9338 35.9654 79.8014 35.9654C78.9086 35.9654 78.1137 35.7749 77.4169 35.3938C76.7309 35.0127 76.192 34.4683 75.8 33.7606C75.4189 33.0529 75.2284 32.2254 75.2284 31.2781ZM94.2631 31.1311C94.2631 31.3924 94.2468 31.6646 94.2141 31.9477H87.8935C87.9371 32.5139 88.1167 32.9494 88.4325 33.2543C88.7591 33.5483 89.1566 33.6953 89.6247 33.6953C90.3216 33.6953 90.8061 33.4013 91.0783 32.8133H94.0508C93.8984 33.4122 93.6207 33.9511 93.2178 34.4302C92.8259 34.9093 92.3305 35.2849 91.7316 35.5571C91.1328 35.8293 90.4631 35.9654 89.7227 35.9654C88.8299 35.9654 88.0351 35.7749 87.3382 35.3938C86.6414 35.0127 86.097 34.4683 85.705 33.7606C85.313 33.0529 85.117 32.2254 85.117 31.2781C85.117 30.3308 85.3076 29.5033 85.6887 28.7956C86.0806 28.0878 86.6251 27.5434 87.3219 27.1624C88.0187 26.7813 88.819 26.5907 89.7227 26.5907C90.6047 26.5907 91.3886 26.7758 92.0746 27.146C92.7605 27.5162 93.2941 28.0443 93.6751 28.7302C94.0671 29.4162 94.2631 30.2165 94.2631 31.1311ZM91.405 30.3961C91.405 29.9171 91.2416 29.536 90.915 29.2529C90.5884 28.9698 90.18 28.8282 89.6901 28.8282C89.2219 28.8282 88.8245 28.9643 88.4978 29.2365C88.1821 29.5088 87.9861 29.8953 87.9099 30.3961H91.405ZM101.99 28.0116C102.252 27.587 102.627 27.244 103.117 26.9827C103.607 26.7214 104.168 26.5907 104.799 26.5907C105.551 26.5907 106.231 26.7813 106.841 27.1624C107.451 27.5434 107.93 28.0878 108.278 28.7956C108.638 29.5033 108.817 30.3254 108.817 31.2617C108.817 32.1981 108.638 33.0256 108.278 33.7442C107.93 34.452 107.451 35.0018 106.841 35.3938C106.231 35.7749 105.551 35.9654 104.799 35.9654C104.157 35.9654 103.596 35.8402 103.117 35.5898C102.638 35.3285 102.263 34.9855 101.99 34.5609V35.8348H99.1975V23.7489H101.99V28.0116ZM105.975 31.2617C105.975 30.5649 105.779 30.0205 105.387 29.6285C105.006 29.2257 104.533 29.0242 103.966 29.0242C103.411 29.0242 102.938 29.2257 102.546 29.6285C102.165 30.0314 101.974 30.5812 101.974 31.2781C101.974 31.9749 102.165 32.5248 102.546 32.9276C102.938 33.3305 103.411 33.5319 103.966 33.5319C104.522 33.5319 104.995 33.3305 105.387 32.9276C105.779 32.5139 105.975 31.9586 105.975 31.2617ZM109.727 31.2617C109.727 30.3254 109.901 29.5033 110.25 28.7956C110.609 28.0878 111.094 27.5434 111.703 27.1624C112.313 26.7813 112.994 26.5907 113.745 26.5907C114.387 26.5907 114.948 26.7214 115.427 26.9827C115.917 27.244 116.293 27.587 116.554 28.0116V26.7214H119.347V35.8348H116.554V34.5445C116.282 34.9692 115.901 35.3121 115.411 35.5735C114.932 35.8348 114.371 35.9654 113.728 35.9654C112.988 35.9654 112.313 35.7749 111.703 35.3938C111.094 35.0018 110.609 34.452 110.25 33.7442C109.901 33.0256 109.727 32.1981 109.727 31.2617ZM116.554 31.2781C116.554 30.5812 116.358 30.0314 115.966 29.6285C115.585 29.2257 115.117 29.0242 114.561 29.0242C114.006 29.0242 113.532 29.2257 113.141 29.6285C112.759 30.0205 112.569 30.5649 112.569 31.2617C112.569 31.9586 112.759 32.5139 113.141 32.9276C113.532 33.3305 114.006 33.5319 114.561 33.5319C115.117 33.5319 115.585 33.3305 115.966 32.9276C116.358 32.5248 116.554 31.9749 116.554 31.2781ZM124.16 23.7489V35.8348H121.367V23.7489H124.16ZM127.589 25.7741C127.099 25.7741 126.696 25.6326 126.38 25.3495C126.075 25.0555 125.923 24.6962 125.923 24.2715C125.923 23.836 126.075 23.4767 126.38 23.1936C126.696 22.8996 127.099 22.7526 127.589 22.7526C128.068 22.7526 128.46 22.8996 128.764 23.1936C129.08 23.4767 129.238 23.836 129.238 24.2715C129.238 24.6962 129.08 25.0555 128.764 25.3495C128.46 25.6326 128.068 25.7741 127.589 25.7741ZM128.977 26.7214V35.8348H126.184V26.7214H128.977Z" fill="#2E2E2E"/>
<path d="M0.05236 24.0357C-0.0169882 24.0829 0.016058 23.9318 0.038051 23.8509C0.12476 23.5319 0.131952 23.2021 0.194585 22.8863C0.654515 20.5317 1.78665 18.5516 3.46716 16.8749C4.93539 15.43 6.63359 14.3597 8.491 13.5213C10.7199 12.5045 13.0549 11.8445 15.443 11.3807C17.7957 10.9169 20.1661 10.6494 22.5365 10.5067C23.1203 10.471 23.7217 10.3996 24.3055 10.3283C24.9069 10.2569 25.4907 10.0607 26.0568 9.84664C27.1358 9.43637 28.1264 8.88339 29.1171 8.29473C34.477 5.04819 40.2084 2.81842 46.3113 1.46273C48.6994 0.927582 51.1052 0.552982 53.5464 0.321086C54.5901 0.214057 55.6337 0.178381 56.6774 0.0713525C56.8636 0.0713525 57.0597 0.0713525 57.2508 0.0789264C57.3754 0.0838641 57.4965 0.0777986 57.621 0.0848181V0.0848181C58.0062 0.106537 58.4081 0 58.7939 0C59.4313 0 60.0725 0 60.7107 0C61.2302 0 61.7701 0.0199591 62.285 0.0891906V0.0891906C62.5327 0.0891906 62.7803 0.0713525 63.0457 0.0713525C63.824 0.124867 64.6024 0.196219 65.363 0.249734C67.4327 0.410277 69.4847 0.677849 71.5367 0.998935C75.4107 1.64111 79.2317 2.56869 82.9818 3.74601C87.9172 5.29792 92.6757 7.26012 97.3281 9.52556C97.4004 9.55472 97.4727 9.60773 97.5353 9.64559C97.5597 9.6603 97.5769 9.68523 97.5744 9.71354V9.71354C97.5712 9.74995 97.5325 9.76775 97.4974 9.75742C96.3678 9.42445 95.2382 9.09148 94.1086 8.75852C89.4032 7.38498 84.627 6.22551 79.8154 5.29792C77.0912 4.78062 74.367 4.33466 71.6074 4.01358C68.8832 3.69249 66.1591 3.4606 63.4172 3.37141C61.3652 3.30005 59.3132 3.30005 57.2612 3.40708C53.4226 3.6033 49.637 4.13844 45.9575 5.28008C43.0211 6.18983 40.2438 7.45634 37.7496 9.29366C37.1127 9.75745 36.4936 10.2748 35.9629 10.8634C35.6268 11.238 35.3438 11.6483 35.1669 12.1121C34.9016 12.7899 35.0254 13.3964 35.4676 13.9494C35.7683 14.3062 36.1398 14.5559 36.529 14.7878C37.4842 15.3229 38.5279 15.6262 39.5893 15.8759C41.2521 16.2684 42.9503 16.5003 44.6485 16.6608C45.7051 16.7656 46.7786 16.8362 47.8358 16.9228C47.874 16.9259 47.9034 16.9582 47.9034 16.9966V16.9966C47.9034 17.0301 47.8806 17.0591 47.8481 17.0673C47.0351 17.2705 46.2217 17.3398 45.3915 17.3922C41.2698 17.6776 37.2189 17.1603 33.221 16.1613C31.912 15.8403 30.6561 15.3943 29.347 15.0554C28.268 14.7878 27.1889 14.6451 26.0921 14.5559C24.5355 14.431 22.9788 14.4489 21.4398 14.5737C17.1589 14.9127 12.9665 15.6619 9.004 17.3208C6.2798 18.4446 3.80326 20.0144 1.62744 22.0301C1.06138 22.5474 0.583756 23.136 0.194585 23.8139C0.17328 23.8461 0.15839 23.8783 0.142188 23.9067C0.121881 23.9422 0.0861922 24.0127 0.05236 24.0357V24.0357Z" fill="#2E2E2E"/>
<path d="M134.622 30.3414C134.545 30.4239 134.422 30.3192 134.498 30.2351C134.522 30.2083 134.551 30.184 134.571 30.157C135.937 28.3643 136.594 26.328 136.611 24.0828C136.611 23.3693 136.345 22.8297 135.813 22.3598C135.299 21.9247 134.731 21.594 134.145 21.2981C132.602 20.5149 130.97 19.958 129.32 19.4533C127.351 18.8441 125.364 18.2698 123.341 17.8521C121.833 17.5388 120.308 17.3299 118.764 17.1211C117.025 16.8948 115.269 16.7208 113.53 16.5641C112.36 16.4597 111.189 16.3727 110.018 16.3031C107.445 16.1464 104.873 16.0246 102.283 15.9724C99.4974 15.9202 96.7298 15.9028 93.9445 15.9724C92.0639 16.0072 90.1834 16.0942 88.3029 16.216C85.5707 16.3901 82.8564 16.6512 80.142 17.0515C78.5985 17.2777 77.0728 17.6084 75.5471 17.9043C73.365 18.322 71.1651 18.6875 68.9829 19.0356C67.0137 19.3488 65.0444 19.6447 63.0575 19.9232C61.3188 20.1668 59.5802 20.3583 57.8239 20.5497C55.4998 20.7934 53.1757 20.9849 50.8339 21.0893C48.4034 21.1937 45.9552 21.1937 43.5247 21.0719C40.2781 20.8978 37.0847 20.3583 33.8913 19.7491C33.4548 19.6635 33.0182 19.5441 32.5816 19.5238C32.57 19.5232 32.5611 19.5172 32.5574 19.5062V19.5062C32.551 19.4871 32.5636 19.4558 32.5837 19.4571C33.6287 19.5254 34.6733 19.5935 35.7009 19.6447C37.5637 19.7491 39.4088 19.7491 41.2716 19.7317C42.6908 19.7143 44.1101 19.6969 45.5294 19.6099C47.339 19.5229 49.1486 19.4011 50.9581 19.227C52.9806 19.0356 54.9853 18.7745 56.9901 18.4612C58.8706 18.1653 60.7157 17.7476 62.5607 17.3299C66.4105 16.4771 70.2958 15.7113 74.181 15.0151C76.6825 14.58 79.184 14.1623 81.6855 13.7968C83.7257 13.501 85.7836 13.2399 87.8416 13.0136C90.0592 12.77 92.2946 12.5437 94.5299 12.3871C96.0911 12.2652 97.6346 12.1956 99.1958 12.126C101.786 12.0216 104.376 11.9868 106.984 12.0564C109.557 12.126 112.111 12.2652 114.666 12.5089C120.716 13.1007 126.659 14.2842 132.442 16.1116C133.915 16.5815 135.352 17.1559 136.665 17.9391C137.552 18.4786 138.368 19.0878 139.007 19.9232C139.381 20.4129 139.69 20.9451 139.85 21.5282C139.939 21.8546 140 22.1955 140 22.5338V22.5338C140 22.736 140 22.9382 140 23.128C140 23.1722 139.989 23.2156 139.962 23.2507V23.2507C139.938 23.2818 139.928 23.3199 139.925 23.3588C139.859 24.3089 139.458 25.1433 138.971 25.9277C137.881 27.6874 136.407 29.0879 134.705 30.265C134.675 30.2857 134.647 30.3149 134.622 30.3414V30.3414Z" fill="#2E2E2E"/>
</svg>
