<svg width="18" height="17" viewBox="0 0 18 17" fill="none" xmlns="http://www.w3.org/2000/svg">
<path d="M8.54761 0C3.84869 0 0.0476074 3.80108 0.0476074 8.5C0.0476074 13.1989 3.84869 17 8.54761 17C13.2465 17 17.0476 13.1989 17.0476 8.5C17.0476 3.80108 13.2465 0 8.54761 0ZM8.54761 1.1039C12.6283 1.1039 15.9437 4.41926 15.9437 8.5C15.9437 12.5807 12.6283 15.8961 8.54761 15.8961C4.46687 15.8961 1.1515 12.5807 1.1515 8.5C1.1515 4.41926 4.46687 1.1039 8.54761 1.1039ZM2.09055 6.5829C1.91724 7.28939 1.81384 7.94437 1.81384 8.56991C7.1383 9.68485 6.28462 10.866 7.25973 15.1123C7.67921 15.1896 8.10605 15.2338 8.54761 15.2338C8.98917 15.2338 9.41601 15.1896 9.83549 15.1123C10.8106 10.866 9.95691 9.68485 15.2814 8.56991C15.2593 7.87446 15.171 7.15693 15.0054 6.5829C11.8851 5.80281 10.2071 5.40909 8.54761 5.40909C6.88808 5.40909 5.21016 5.80281 2.09055 6.5829ZM8.54761 5.81385C10.0268 5.81385 11.2338 7.02078 11.2338 8.5C11.2338 9.97922 10.0268 11.1861 8.54761 11.1861C7.06839 11.1861 5.86146 9.97922 5.86146 8.5C5.86146 7.02078 7.06839 5.81385 8.54761 5.81385ZM8.54761 6.47619C7.42531 6.47619 6.5238 7.37771 6.5238 8.5C6.5238 9.62229 7.42531 10.5238 8.54761 10.5238C9.6699 10.5238 10.5714 9.62229 10.5714 8.5C10.5714 7.37771 9.6699 6.47619 8.54761 6.47619Z" fill="#A9A9A9"/>
</svg>
