<svg width="18" height="17" viewBox="0 0 18 17" fill="none" xmlns="http://www.w3.org/2000/svg">
<path d="M3.23511 2.65625C3.23511 2.51535 3.29108 2.38023 3.39071 2.2806C3.49034 2.18097 3.62546 2.125 3.76636 2.125H9.07886C9.21975 2.125 9.35488 2.18097 9.45451 2.2806C9.55414 2.38023 9.61011 2.51535 9.61011 2.65625V7.96875C9.61011 8.10965 9.55414 8.24477 9.45451 8.3444C9.35488 8.44403 9.21975 8.5 9.07886 8.5H3.76636C3.62546 8.5 3.49034 8.44403 3.39071 8.3444C3.29108 8.24477 3.23511 8.10965 3.23511 7.96875V2.65625Z" fill="#A9A9A9"/>
<path d="M1.11011 2.125C1.11011 1.56141 1.33399 1.02091 1.73251 0.622398C2.13102 0.223883 2.67152 0 3.23511 0L9.61011 0C10.1737 0 10.7142 0.223883 11.1127 0.622398C11.5112 1.02091 11.7351 1.56141 11.7351 2.125V10.625C12.2987 10.625 12.8392 10.8489 13.2377 11.2474C13.6362 11.6459 13.8601 12.1864 13.8601 12.75V13.2812C13.8601 13.4221 13.9161 13.5573 14.0157 13.6569C14.1153 13.7565 14.2505 13.8125 14.3914 13.8125C14.5323 13.8125 14.6674 13.7565 14.767 13.6569C14.8666 13.5573 14.9226 13.4221 14.9226 13.2812V8.5H14.3914C14.2505 8.5 14.1153 8.44403 14.0157 8.3444C13.9161 8.24477 13.8601 8.10964 13.8601 7.96875V4.64844C13.8601 4.50754 13.9161 4.37242 14.0157 4.27279C14.1153 4.17316 14.2505 4.11719 14.3914 4.11719H15.9798C15.9681 3.61144 15.9235 3.16731 15.7662 2.81881C15.682 2.61618 15.5354 2.4457 15.3476 2.33219C15.1521 2.21531 14.8546 2.125 14.3914 2.125C14.2505 2.125 14.1153 2.06903 14.0157 1.9694C13.9161 1.86977 13.8601 1.73465 13.8601 1.59375C13.8601 1.45285 13.9161 1.31773 14.0157 1.2181C14.1153 1.11847 14.2505 1.0625 14.3914 1.0625C14.9906 1.0625 15.49 1.17937 15.8916 1.4195C16.2985 1.66175 16.5652 2.00494 16.7352 2.38319C17.0487 3.07912 17.0476 3.93975 17.0476 4.59425V7.96769C17.0477 8.03754 17.0341 8.10674 17.0075 8.17131C16.9808 8.23589 16.9417 8.29458 16.8924 8.34402C16.843 8.39347 16.7844 8.43269 16.7199 8.45946C16.6554 8.48622 16.5862 8.5 16.5164 8.5H15.9851V13.2812C15.9851 13.7039 15.8172 14.1093 15.5183 14.4082C15.2194 14.7071 14.814 14.875 14.3914 14.875C13.9687 14.875 13.5633 14.7071 13.2644 14.4082C12.9655 14.1093 12.7976 13.7039 12.7976 13.2812V12.75C12.7976 12.4682 12.6857 12.198 12.4864 11.9987C12.2871 11.7994 12.0169 11.6875 11.7351 11.6875V15.9375H12.2664C12.4073 15.9375 12.5424 15.9935 12.642 16.0931C12.7416 16.1927 12.7976 16.3279 12.7976 16.4687C12.7976 16.6096 12.7416 16.7448 12.642 16.8444C12.5424 16.944 12.4073 17 12.2664 17H0.578857C0.437961 17 0.302836 16.944 0.203207 16.8444C0.103578 16.7448 0.0476074 16.6096 0.0476074 16.4687C0.0476074 16.3279 0.103578 16.1927 0.203207 16.0931C0.302836 15.9935 0.437961 15.9375 0.578857 15.9375H1.11011V2.125ZM10.6726 2.125C10.6726 1.84321 10.5607 1.57296 10.3614 1.3737C10.1621 1.17444 9.8919 1.0625 9.61011 1.0625H3.23511C2.95331 1.0625 2.68306 1.17444 2.48381 1.3737C2.28455 1.57296 2.17261 1.84321 2.17261 2.125V15.9375H10.6726V2.125Z" fill="#A9A9A9"/>
</svg>
