<svg width="18" height="16" viewBox="0 0 18 16" fill="none" xmlns="http://www.w3.org/2000/svg">
<path d="M6.63511 5.1C6.80418 5.1 6.96633 5.16717 7.08589 5.28672C7.20544 5.40627 7.27261 5.56842 7.27261 5.7375V7.8625C7.27261 8.449 7.74861 8.925 8.33511 8.925H8.97261V5.7375C8.97261 5.56842 9.03977 5.40627 9.15933 5.28672C9.27888 5.16717 9.44103 5.1 9.61011 5.1C9.77918 5.1 9.94133 5.16717 10.0609 5.28672C10.1804 5.40627 10.2476 5.56842 10.2476 5.7375V8.925H13.8601C14.0292 8.925 14.1913 8.99216 14.3109 9.11172C14.4304 9.23127 14.4976 9.39342 14.4976 9.5625C14.4976 9.73158 14.4304 9.89373 14.3109 10.0133C14.1913 10.1328 14.0292 10.2 13.8601 10.2H8.33511C7.71516 10.2 7.12061 9.95373 6.68225 9.51536C6.24388 9.077 5.99761 8.48244 5.99761 7.8625V5.7375C5.99761 5.56842 6.06477 5.40627 6.18433 5.28672C6.30388 5.16717 6.46603 5.1 6.63511 5.1ZM6.63511 0C6.80418 0 6.96633 0.0671649 7.08589 0.186719C7.20544 0.306274 7.27261 0.468424 7.27261 0.6375V1.7H8.97261V0.6375C8.97261 0.468424 9.03977 0.306274 9.15933 0.186719C9.27888 0.0671649 9.44103 0 9.61011 0C9.77918 0 9.94133 0.0671649 10.0609 0.186719C10.1804 0.306274 10.2476 0.468424 10.2476 0.6375V1.7H12.5851C12.7124 1.70003 12.8368 1.73818 12.9422 1.80953C13.0477 1.88088 13.1293 1.98217 13.1767 2.10035L13.8669 3.825H14.7101C15.3301 3.825 15.9246 4.07127 16.363 4.50964C16.8013 4.948 17.0476 5.54256 17.0476 6.1625V10.8375C17.0476 11.4574 16.8013 12.052 16.363 12.4904C15.9246 12.9287 15.3301 13.175 14.7101 13.175H13.8669L13.1767 14.8996C13.1293 15.0178 13.0477 15.1191 12.9422 15.1905C12.8368 15.2618 12.7124 15.3 12.5851 15.3H6.21011C6.12275 15.3 6.03632 15.282 5.95619 15.2472C5.87607 15.2124 5.80394 15.1615 5.74431 15.0977L3.22661 12.3998C2.82258 11.9671 2.59778 11.3972 2.59761 10.8052V8.075H1.32261V11.2625C1.32261 11.4316 1.25544 11.5937 1.13589 11.7133C1.01633 11.8328 0.854183 11.9 0.685107 11.9C0.516032 11.9 0.353881 11.8328 0.234327 11.7133C0.114772 11.5937 0.0476074 11.4316 0.0476074 11.2625V4.0375C0.0476074 3.86842 0.114772 3.70627 0.234327 3.58672C0.353881 3.46716 0.516032 3.4 0.685107 3.4C0.854183 3.4 1.01633 3.46716 1.13589 3.58672C1.25544 3.70627 1.32261 3.86842 1.32261 4.0375V6.8H2.59761V4.0375C2.59761 3.41756 2.84388 2.823 3.28225 2.38464C3.72061 1.94627 4.31516 1.7 4.93511 1.7H5.99761V0.6375C5.99761 0.468424 6.06477 0.306274 6.18433 0.186719C6.30388 0.0671649 6.46603 0 6.63511 0ZM4.93511 2.975C4.34861 2.975 3.87261 3.451 3.87261 4.0375V10.8052C3.87261 11.0738 3.97461 11.333 4.15821 11.5302L6.48721 14.025H12.1533L12.8435 12.3004C12.8909 12.1822 12.9725 12.0809 13.078 12.0095C13.1834 11.9382 13.3078 11.9 13.4351 11.9H14.7101C15.2966 11.9 15.7726 11.424 15.7726 10.8375V6.1625C15.7726 5.576 15.2966 5.1 14.7101 5.1H13.4351C13.3078 5.09997 13.1834 5.06182 13.078 4.99047C12.9725 4.91912 12.8909 4.81783 12.8435 4.69965L12.1533 2.975H4.93511Z" fill="#A9A9A9"/>
</svg>
