<svg width="22" height="17" viewBox="0 0 22 17" fill="none" xmlns="http://www.w3.org/2000/svg">
<path d="M4.04762 4.04762C4.04762 3.72869 4.11044 3.41289 4.23248 3.11825C4.35453 2.8236 4.53342 2.55587 4.75893 2.33036C4.98444 2.10485 5.25217 1.92596 5.54682 1.80391C5.84146 1.68186 6.15727 1.61905 6.47619 1.61905C6.79511 1.61905 7.11092 1.68186 7.40556 1.80391C7.70021 1.92596 7.96794 2.10485 8.19345 2.33036C8.41896 2.55587 8.59785 2.8236 8.7199 3.11825C8.84195 3.41289 8.90476 3.72869 8.90476 4.04762C8.90476 4.69172 8.6489 5.30943 8.19345 5.76488C7.738 6.22032 7.12029 6.47619 6.47619 6.47619C5.83209 6.47619 5.21438 6.22032 4.75893 5.76488C4.30349 5.30943 4.04762 4.69172 4.04762 4.04762ZM6.47619 0C5.4027 0 4.37317 0.426444 3.61409 1.18552C2.85502 1.9446 2.42857 2.97412 2.42857 4.04762C2.42857 5.12111 2.85502 6.15064 3.61409 6.90972C4.37317 7.66879 5.4027 8.09524 6.47619 8.09524C7.54969 8.09524 8.57921 7.66879 9.33829 6.90972C10.0974 6.15064 10.5238 5.12111 10.5238 4.04762C10.5238 2.97412 10.0974 1.9446 9.33829 1.18552C8.57921 0.426444 7.54969 0 6.47619 0ZM14.5714 4.85714C14.5714 4.42774 14.742 4.01593 15.0456 3.7123C15.3493 3.40867 15.7611 3.2381 16.1905 3.2381C16.6199 3.2381 17.0317 3.40867 17.3353 3.7123C17.6389 4.01593 17.8095 4.42774 17.8095 4.85714C17.8095 5.28654 17.6389 5.69835 17.3353 6.00198C17.0317 6.30561 16.6199 6.47619 16.1905 6.47619C15.7611 6.47619 15.3493 6.30561 15.0456 6.00198C14.742 5.69835 14.5714 5.28654 14.5714 4.85714ZM16.1905 1.61905C15.3317 1.61905 14.5081 1.9602 13.9008 2.56746C13.2935 3.17472 12.9524 3.99835 12.9524 4.85714C12.9524 5.71594 13.2935 6.53956 13.9008 7.14682C14.5081 7.75408 15.3317 8.09524 16.1905 8.09524C17.0493 8.09524 17.8729 7.75408 18.4802 7.14682C19.0874 6.53956 19.4286 5.71594 19.4286 4.85714C19.4286 3.99835 19.0874 3.17472 18.4802 2.56746C17.8729 1.9602 17.0493 1.61905 16.1905 1.61905ZM0 12.1429C0 11.4988 0.255867 10.881 0.711312 10.4256C1.16676 9.97015 1.78447 9.71429 2.42857 9.71429H10.5238C11.1679 9.71429 11.7856 9.97015 12.2411 10.4256C12.6965 10.881 12.9524 11.4988 12.9524 12.1429V12.3242C12.9507 12.3984 12.9453 12.4724 12.9362 12.546C12.8439 13.3309 12.5518 14.079 12.0878 14.7188C11.2022 15.9411 9.51838 17 6.47619 17C3.43562 17 1.75181 15.9411 0.862952 14.7188C0.399519 14.0788 0.107974 13.3308 0.0161905 12.546C0.00813024 12.4723 0.00272992 12.3983 0 12.3242V12.1429ZM1.61905 12.2886V12.2999L1.62552 12.3792C1.68822 12.8804 1.87645 13.3577 2.17276 13.7668C2.70057 14.4921 3.8501 15.381 6.47619 15.381C9.10229 15.381 10.2518 14.4921 10.7796 13.7668C11.0759 13.3577 11.2642 12.8804 11.3269 12.3792C11.3298 12.3523 11.3319 12.3253 11.3333 12.2983V12.1429C11.3333 11.9282 11.248 11.7223 11.0962 11.5704C10.9444 11.4186 10.7385 11.3333 10.5238 11.3333H2.42857C2.21387 11.3333 2.00797 11.4186 1.85615 11.5704C1.70434 11.7223 1.61905 11.9282 1.61905 12.1429V12.2886ZM16.1905 15.381C15.2385 15.381 14.4581 15.2352 13.8267 14.9956C14.0862 14.5202 14.2827 14.0129 14.4111 13.4867C14.845 13.6502 15.4214 13.7619 16.1905 13.7619C18.0022 13.7619 18.7453 13.1434 19.0724 12.6836C19.2635 12.4154 19.3849 12.1038 19.4253 11.777L19.4286 11.7316C19.4269 11.6254 19.3835 11.5241 19.3078 11.4496C19.232 11.3751 19.13 11.3333 19.0238 11.3333H14.4905C14.3709 10.7462 14.1221 10.1931 13.7619 9.71429H19.0238C20.141 9.71429 21.0476 10.621 21.0476 11.7381V11.7656C21.0457 11.8246 21.0414 11.8835 21.0347 11.9421C20.9661 12.5489 20.7443 13.1283 20.3903 13.6259C19.707 14.5828 18.4264 15.381 16.1905 15.381Z" fill="#A9A9A9"/>
</svg>
