<svg width="44" height="44" viewBox="0 0 44 44" fill="none" xmlns="http://www.w3.org/2000/svg">
<path d="M44 22C44 27.8348 41.6822 33.4305 37.5564 37.5564C33.4305 41.6822 27.8348 44 22 44C16.1652 44 10.5695 41.6822 6.44365 37.5564C2.31785 33.4305 0 27.8348 0 22C0 16.1652 2.31785 10.5695 6.44365 6.44365C10.5695 2.31785 16.1652 0 22 0C27.8348 0 33.4305 2.31785 37.5564 6.44365C41.6822 10.5695 44 16.1652 44 22ZM23.375 12.375C23.375 12.0103 23.2301 11.6606 22.9723 11.4027C22.7144 11.1449 22.3647 11 22 11C21.6353 11 21.2856 11.1449 21.0277 11.4027C20.7699 11.6606 20.625 12.0103 20.625 12.375V28.3057L14.7235 22.4015C14.4653 22.1433 14.1151 21.9983 13.75 21.9983C13.3849 21.9983 13.0347 22.1433 12.7765 22.4015C12.5183 22.6597 12.3733 23.0099 12.3733 23.375C12.3733 23.7401 12.5183 24.0903 12.7765 24.3485L21.0265 32.5985C21.1542 32.7266 21.306 32.8281 21.473 32.8975C21.6401 32.9668 21.8191 33.0025 22 33.0025C22.1809 33.0025 22.3599 32.9668 22.527 32.8975C22.694 32.8281 22.8458 32.7266 22.9735 32.5985L31.2235 24.3485C31.4817 24.0903 31.6267 23.7401 31.6267 23.375C31.6267 23.0099 31.4817 22.6597 31.2235 22.4015C30.9653 22.1433 30.6151 21.9983 30.25 21.9983C29.8849 21.9983 29.5347 22.1433 29.2765 22.4015L23.375 28.3057V12.375Z" fill="#F7DD35"/>
</svg>
