<svg width="55" height="41" viewBox="0 0 55 41" fill="none" xmlns="http://www.w3.org/2000/svg">
<path d="M12.5007 16.3507C11.8892 16.3507 11.3025 16.4438 10.7185 16.5287C10.9077 15.8933 11.1023 15.247 11.4149 14.6663C11.7275 13.8228 12.2155 13.0915 12.7008 12.3548C13.1066 11.5578 13.8222 11.0182 14.3487 10.3363C14.8998 9.67348 15.651 9.23253 16.246 8.68203C16.83 8.10688 17.595 7.8193 18.2037 7.41396C18.8398 7.0497 19.3937 6.64709 19.9859 6.45538L21.4637 5.84736L22.7634 5.30781L21.4336 0L19.7967 0.394388C19.273 0.525851 18.6342 0.679224 17.9076 0.862724C17.1645 0.999665 16.3721 1.37488 15.4893 1.71723C14.6174 2.10615 13.6084 2.36907 12.6707 2.99352C11.7275 3.59058 10.639 4.08904 9.67931 4.88878C8.74983 5.71316 7.62842 6.42799 6.80038 7.47695C5.89558 8.45745 5.00174 9.48724 4.30805 10.6595C3.50469 11.7769 2.95907 13.0039 2.38328 14.2172C1.86233 15.4305 1.44283 16.6711 1.1001 17.8762C0.450285 20.2918 0.15965 22.587 0.0472344 24.5507C-0.0459882 26.5172 0.00884861 28.1522 0.124006 29.3354C0.165133 29.8941 0.241905 30.4364 0.296742 30.8116L0.365287 31.2717L0.436575 31.2553C0.924242 33.5308 2.04687 35.6219 3.67459 37.2867C5.30231 38.9514 7.36861 40.1219 9.63446 40.6626C11.9003 41.2034 14.2731 41.0923 16.4784 40.3422C18.6837 39.5922 20.6313 38.2338 22.096 36.4242C23.5607 34.6147 24.4826 32.4278 24.7551 30.1168C25.0275 27.8057 24.6394 25.4648 23.6356 23.3649C22.6318 21.2649 21.0534 19.4917 19.0829 18.2505C17.1123 17.0092 14.8303 16.3505 12.5007 16.3507ZM42.6609 16.3507C42.0495 16.3507 41.4627 16.4438 40.8787 16.5287C41.0679 15.8933 41.2626 15.247 41.5751 14.6663C41.8877 13.8228 42.3757 13.0915 42.861 12.3548C43.2668 11.5578 43.9825 11.0182 44.5089 10.3363C45.06 9.67348 45.8113 9.23253 46.4062 8.68203C46.9903 8.10688 47.7552 7.8193 48.3639 7.41396C49 7.0497 49.5539 6.64709 50.1461 6.45538L51.624 5.84736L52.9236 5.30781L51.5938 0L49.9569 0.394388C49.4332 0.525851 48.7944 0.679224 48.0678 0.862724C47.3248 0.999665 46.5324 1.37488 45.6495 1.71723C44.7803 2.10888 43.7686 2.36907 42.8309 2.99626C41.8877 3.59332 40.7992 4.09178 39.8395 4.89152C38.9101 5.7159 37.7886 6.43073 36.9606 7.47695C36.0558 8.45745 35.162 9.48724 34.4683 10.6595C33.6649 11.7769 33.1193 13.0039 32.5435 14.2172C32.0226 15.4305 31.6031 16.6711 31.2603 17.8762C30.6105 20.2918 30.3199 22.587 30.2075 24.5507C30.1142 26.5172 30.1691 28.1522 30.2842 29.3354C30.3254 29.8941 30.4021 30.4364 30.457 30.8116L30.5255 31.2717L30.5968 31.2553C31.0845 33.5308 32.2071 35.6219 33.8348 37.2867C35.4625 38.9514 37.5288 40.1219 39.7947 40.6626C42.0605 41.2034 44.4333 41.0923 46.6386 40.3422C48.8439 39.5922 50.7916 38.2338 52.2563 36.4242C53.721 34.6147 54.6429 32.4278 54.9153 30.1168C55.1878 27.8057 54.7997 25.4648 53.7959 23.3649C52.7921 21.2649 51.2136 19.4917 49.2431 18.2505C47.2726 17.0092 44.9905 16.3505 42.6609 16.3507Z" fill="#FFF5B1"/>
</svg>
