<svg width="25" height="25" viewBox="0 0 25 25" fill="none" xmlns="http://www.w3.org/2000/svg">
<path fill-rule="evenodd" clip-rule="evenodd" d="M12.0867 0.109739C12.2126 0.0378251 12.355 0 12.5 0C12.645 0 12.7874 0.0378251 12.9133 0.109739L24.58 6.77686C24.7075 6.84972 24.8136 6.955 24.8873 7.08204C24.9611 7.20907 25 7.35335 25 7.50024V8.70033C25 12.3772 23.8023 15.954 21.5881 18.8893C19.3738 21.8246 16.2636 23.9585 12.7283 24.9681C12.5791 25.0106 12.4209 25.0106 12.2717 24.9681C8.73664 23.958 5.62678 21.8239 3.41262 18.8888C1.19846 15.9536 0.000500575 12.3771 0 8.70033L0 7.50024C4.73784e-05 7.35335 0.0389188 7.20907 0.112676 7.08204C0.186433 6.955 0.292455 6.84972 0.42 6.77686L12.0867 0.109739ZM11.7867 17.8526L18.9833 8.85367L17.6833 7.8136L11.5467 15.4825L7.2 11.8605L6.13333 13.1406L11.7867 17.8526Z" fill="#2E2E2E"/>
</svg>
